<?xml version="1.0" encoding="UTF-8" standalone="no"?>
<!-- Created with Inkscape (http://www.inkscape.org/) -->

<svg width="256" height="256" viewBox="0 0 67.733332 67.733333" version="1.1" id="svg5" xml:space="preserve" sodipodi:docname="favicon.svg" inkscape:version="1.2.2 (732a01da63, 2022-12-09)"
   xmlns:inkscape="http://www.inkscape.org/namespaces/inkscape"
   xmlns:sodipodi="http://sodipodi.sourceforge.net/DTD/sodipodi-0.dtd"
   xmlns="http://www.w3.org/2000/svg"
   xmlns:svg="http://www.w3.org/2000/svg">
   <sodipodi:namedview id="namedview10" pagecolor="#ffffff" bordercolor="#000000" borderopacity="0.25" inkscape:showpageshadow="2" inkscape:pageopacity="0.0" inkscape:pagecheckerboard="0" inkscape:deskcolor="#d1d1d1" showgrid="false" inkscape:zoom="4.0117188" inkscape:cx="146.81986" inkscape:cy="175.73515" inkscape:window-width="2560" inkscape:window-height="1334" inkscape:window-x="-11" inkscape:window-y="-11" inkscape:window-maximized="1" inkscape:current-layer="g21953" />
   <defs id="defs2">

   </defs>
   <g id="g21953" transform="translate(-81.491665,-32.014583)">
      <rect style="fill:#2b4263;fill-opacity:1;stroke:none;stroke-width:0.402091;stop-color:#000000" id="rect20483" width="54.470127" height="54.470127" x="88.12326" y="38.646187" />
      <path id="rect15948-0" style="fill:#9fd2ab;stroke-width:0.562499;stop-color:#000000" d="m 92.207418,36.115625 a 6.6145832,6.6145832 0 0 0 -6.614714,6.614714 v 46.301823 a 6.6145832,6.6145832 0 0 0 6.614714,6.614712 h 46.301822 a 6.6145832,6.6145832 0 0 0 6.61472,-6.614712 V 42.730339 a 6.6145832,6.6145832 0 0 0 -6.61472,-6.614714 z m 23.150912,6.614714 a 23.15104,23.15104 0 0 1 23.15091,23.15091 23.15104,23.15104 0 0 1 -23.15091,23.150913 23.15104,23.15104 0 1 1 0,-46.301823 z m 0,4.696224 a 31.518488,31.518488 0 0 0 -4.4317,9.194205 h 8.86341 a 31.518488,31.518488 0 0 0 -4.43171,-9.194205 z m -6.0194,0.959244 a 18.355468,18.355468 0 0 0 -9.987771,8.234961 h 6.746691 a 39.885937,39.885937 0 0 1 3.24108,-8.234961 z m 12.00567,0 a 36.214843,36.214843 0 0 1 3.20794,8.234961 h 6.81295 A 18.487759,18.487759 0 0 0 121.3446,48.385807 Z M 97.432676,61.251299 a 18.190103,18.190103 0 0 0 0,9.2599 h 7.838484 a 38.23229,38.23229 0 0 1 -0.33079,-4.62995 38.23229,38.23229 0 0 1 0.33079,-4.62995 z m 12.501564,0 a 29.137238,29.137238 0 0 0 0,9.2599 h 10.84817 a 34.065103,34.065103 0 0 0 0.36394,-4.62995 33.767448,33.767448 0 0 0 -0.36394,-4.62995 z m 15.51127,0 a 38.23229,38.23229 0 0 1 0.3308,4.62995 38.23229,38.23229 0 0 1 -0.3308,4.62995 h 7.83847 a 18.190103,18.190103 0 0 0 0,-9.2599 z M 99.351159,75.141731 a 18.553906,18.553906 0 0 0 9.987771,8.234963 39.885937,39.885937 0 0 1 -3.24108,-8.234963 z m 11.575471,0 a 31.41927,31.41927 0 0 0 4.4317,9.161068 31.41927,31.41927 0 0 0 4.43171,-9.161068 z m 13.62591,0 a 36.214843,36.214843 0 0 1 -3.20794,8.234963 18.586979,18.586979 0 0 0 10.02089,-8.234963 z" />
      <path id="path10488-8" style="fill:#5470cb;fill-opacity:1;stroke:none;stroke-width:0.562499;stop-color:#000000" d="M 145.12396 69.913044 L 137.53734 72.454491 C 134.62779 82.27972 125.60531 89.023749 115.35833 89.032291 C 113.4067 89.028771 111.46374 88.77752 109.57522 88.2866 C 106.39619 87.427865 103.63983 86.025979 101.3225 84.234134 L 85.592707 89.032291 C 85.592636 92.685517 88.554064 95.646946 92.20729 95.646874 L 109.67806 95.646874 L 109.82482 95.646874 L 138.50937 95.646874 C 142.16261 95.646945 145.12403 92.685521 145.12396 89.032291 L 145.12396 69.913044 z M 129.51871 75.141666 L 124.02344 76.982897 C 123.33698 79.19492 122.4399 81.336126 121.34453 83.376822 C 125.56529 81.924171 129.12253 79.000881 131.36562 75.141666 L 129.51871 75.141666 z M 118.42998 78.856684 L 113.13159 80.628669 C 113.78692 81.90197 114.53563 83.130729 115.35833 84.302864 C 116.5591 82.594674 117.59099 80.768712 118.42998 78.856684 z M 108.64866 81.999128 L 108.64556 82.000162 L 107.14901 82.456981 C 107.85539 82.808064 108.5865 83.116386 109.33906 83.376822 C 109.32266 83.344092 109.30617 83.311397 109.28997 83.278637 L 109.28997 83.282771 C 109.06791 82.858916 108.85554 82.430147 108.64866 81.999128 z " />
      <path id="path236-1" style="fill:#d7684f;fill-opacity:1;stroke:none;stroke-width:0.562499;stop-color:#000000" d="m 92.207418,36.115625 c -3.653235,-7.1e-5 -6.614785,2.961479 -6.614714,6.614714 v 46.301823 c -7.1e-5,3.653234 2.96148,6.614784 6.614714,6.614712 h 17.617532 c -0.041,-2.219552 -0.10575,-4.611148 -0.18233,-7.341883 -20.561459,-5.494063 -23.508345,-33.677113 -4.49463,-43.239376 -0.68689,-3.245553 -1.3101,-6.223219 -1.93833,-8.94999 z m 13.961682,13.70104 c -2.83738,1.618422 -5.19007,3.972123 -6.817941,6.804103 h 6.746691 c 0.25088,-0.912839 0.49423,-1.739631 0.80943,-2.632311 -0.24011,-1.327809 -0.46257,-2.780285 -0.73818,-4.171792 z m -8.736424,11.434634 c -0.798797,3.034953 -0.798797,6.224949 0,9.2599 h 7.838484 c -0.20393,-1.535193 -0.31441,-3.081358 -0.33079,-4.62995 0.0165,-1.548591 0.12686,-3.094756 0.33079,-4.62995 z m 1.918483,13.890432 c 2.232671,3.855028 5.777851,6.778047 9.987771,8.234963 -1.38248,-2.616265 -2.46953,-5.378249 -3.24108,-8.234963 z" />
   </g>
</svg>
