<?xml version="1.0" encoding="utf-8"?>
<!-- Material Design icons licensed under Pictogrammers Free License - https://pictogrammers.com/docs/general/license/ -->
<!-- https://github.com/Templarian/MaterialDesign/tree/master -->
<svg width="0" height="0" class="hidden">
  <defs>
    <symbol xmlns="http://www.w3.org/2000/svg" viewBox="0 0 24 24" id="dots-horizontal">
      <path d="M16,12A2,2 0 0,1 18,10A2,2 0 0,1 20,12A2,2 0 0,1 18,14A2,2 0 0,1 16,12M10,12A2,2 0 0,1 12,10A2,2 0 0,1 14,12A2,2 0 0,1 12,14A2,2 0 0,1 10,12M4,12A2,2 0 0,1 6,10A2,2 0 0,1 8,12A2,2 0 0,1 6,14A2,2 0 0,1 4,12Z" />
    </symbol>
    <symbol xmlns="http://www.w3.org/2000/svg" viewBox="0 0 24 24" id="text-box">
      <path d="M14,17H7V15H14M17,13H7V11H17M17,9H7V7H17M19,3H5C3.89,3 3,3.89 3,5V19A2,2 0 0,0 5,21H19A2,2 0 0,0 21,19V5C21,3.89 20.1,3 19,3Z" />
    </symbol>
    <symbol xmlns="http://www.w3.org/2000/svg" viewBox="0 0 24 24" id="play">
      <path d="M8,5.14V19.14L19,12.14L8,5.14Z" />
    </symbol>
    <symbol xmlns="http://www.w3.org/2000/svg" viewBox="0 0 24 24" id="devices">
      <path d="M3 6H21V4H3C1.9 4 1 4.9 1 6V18C1 19.1 1.9 20 3 20H7V18H3V6M13 12H9V13.78C8.39 14.33 8 15.11 8 16C8 16.89 8.39 17.67 9 18.22V20H13V18.22C13.61 17.67 14 16.88 14 16S13.61 14.33 13 13.78V12M11 17.5C10.17 17.5 9.5 16.83 9.5 16S10.17 14.5 11 14.5 12.5 15.17 12.5 16 11.83 17.5 11 17.5M22 8H16C15.5 8 15 8.5 15 9V19C15 19.5 15.5 20 16 20H22C22.5 20 23 19.5 23 19V9C23 8.5 22.5 8 22 8M21 18H17V10H21V18Z" />
    </symbol>
    <symbol xmlns="http://www.w3.org/2000/svg" viewBox="0 0 24 24" id="close">
      <path d="M19,6.41L17.59,5L12,10.59L6.41,5L5,6.41L10.59,12L5,17.59L6.41,19L12,13.41L17.59,19L19,17.59L13.41,12L19,6.41Z" />
    </symbol>
    <symbol xmlns="http://www.w3.org/2000/svg" viewBox="0 0 24 24" id="cancel">
      <path d="M12 2C17.5 2 22 6.5 22 12S17.5 22 12 22 2 17.5 2 12 6.5 2 12 2M12 4C10.1 4 8.4 4.6 7.1 5.7L18.3 16.9C19.3 15.5 20 13.8 20 12C20 7.6 16.4 4 12 4M16.9 18.3L5.7 7.1C4.6 8.4 4 10.1 4 12C4 16.4 7.6 20 12 20C13.9 20 15.6 19.4 16.9 18.3Z" />
    </symbol>
  </defs>
</svg>