<?xml version="1.0" encoding="utf-8"?>
<!-- Material Design icons licensed under Pictogrammers Free License - https://pictogrammers.com/docs/general/license/ -->
<!-- https://github.com/Templarian/MaterialDesign/tree/master -->
<svg width="0" height="0" class="hidden">
  <defs>
    <symbol xmlns="http://www.w3.org/2000/svg" viewBox="0 0 24 24" id="close">
      <path d="M19,6.41L17.59,5L12,10.59L6.41,5L5,6.41L10.59,12L5,17.59L6.41,19L12,13.41L17.59,19L19,17.59L13.41,12L19,6.41Z" />
    </symbol>
    <symbol xmlns="http://www.w3.org/2000/svg" viewBox="0 0 24 24" id="sync">
      <path d="M12,18A6,6 0 0,1 6,12C6,11 6.25,10.03 6.7,9.2L5.24,7.74C4.46,8.97 4,10.43 4,12A8,8 0 0,0 12,20V23L16,19L12,15M12,4V1L8,5L12,9V6A6,6 0 0,1 18,12C18,13 17.75,13.97 17.3,14.8L18.76,16.26C19.54,15.03 20,13.57 20,12A8,8 0 0,0 12,4Z" />
    </symbol>
    <symbol xmlns="http://www.w3.org/2000/svg" viewBox="0 0 24 24" id="cancel">
      <path d="M12 2C17.5 2 22 6.5 22 12S17.5 22 12 22 2 17.5 2 12 6.5 2 12 2M12 4C10.1 4 8.4 4.6 7.1 5.7L18.3 16.9C19.3 15.5 20 13.8 20 12C20 7.6 16.4 4 12 4M16.9 18.3L5.7 7.1C4.6 8.4 4 10.1 4 12C4 16.4 7.6 20 12 20C13.9 20 15.6 19.4 16.9 18.3Z" />
    </symbol>
  </defs>
</svg>