<?xml version="1.0" encoding="utf-8"?>
<!-- Material Design icons licensed under Pictogrammers Free License -
https://pictogrammers.com/docs/general/license/ -->
<!-- https://github.com/Templarian/MaterialDesign/tree/master -->
<svg width="0" height="0" class="hidden">
  <defs>
    <symbol xmlns="http://www.w3.org/2000/svg" viewBox="0 0 24 24" id="check">
      <path d="M21,7L9,19L3.5,13.5L4.91,12.09L9,16.17L19.59,5.59L21,7Z" />
    </symbol>
    <symbol xmlns="http://www.w3.org/2000/svg" viewBox="0 0 24 24" id="check-all">
      <path
        d="M0.41,13.41L6,19L7.41,17.58L1.83,12M22.24,5.58L11.66,16.17L7.5,12L6.07,13.41L11.66,19L23.66,7M18,7L16.59,5.58L10.24,11.93L11.66,13.34L18,7Z" />
    </symbol>
    <symbol xmlns="http://www.w3.org/2000/svg" viewBox="0 0 24 24" id="web-sync">
      <path
        d="M16.5 11.74C16.5 11.15 16.43 10.58 16.36 10H19.74C19.82 10.33 19.89 10.67 19.93 11C20.65 11.07 21.34 11.23 22 11.5C21.71 6.21 17.35 2 12 2C6.47 2 2 6.5 2 12C2 17.5 6.5 22 12 22C12.87 22 13.71 21.88 14.5 21.67C13.71 20.71 13.18 19.5 13.04 18.2C12.73 18.81 12.39 19.4 12 19.96C11.17 18.76 10.5 17.43 10.09 16H13.18C13.35 15.28 13.64 14.61 14.03 14H9.66C9.56 13.34 9.5 12.68 9.5 12S9.56 10.65 9.66 10H14.34C14.43 10.65 14.5 11.32 14.5 12C14.5 12.5 14.46 13 14.4 13.5C14.97 12.76 15.68 12.17 16.5 11.74M4.26 14C4.1 13.36 4 12.69 4 12S4.1 10.64 4.26 10H7.64C7.56 10.66 7.5 11.32 7.5 12S7.56 13.34 7.64 14H4.26M5.08 16H8C8.35 17.25 8.8 18.45 9.4 19.56C7.57 18.93 6.03 17.65 5.08 16M8 8H5.08C6.03 6.34 7.57 5.06 9.4 4.44C8.8 5.55 8.35 6.75 8 8M10.09 8C10.5 6.57 11.17 5.23 12 4.03C12.83 5.23 13.5 6.57 13.91 8H10.09M18.92 8H15.97C15.65 6.75 15.19 5.55 14.59 4.44C16.43 5.07 17.96 6.34 18.92 8M23 17.5C23 18.32 22.75 19.08 22.33 19.71L21.24 18.62C21.41 18.28 21.5 17.9 21.5 17.5C21.5 16.12 20.38 15 19 15V16.5L16.75 14.25L19 12V13.5C21.21 13.5 23 15.29 23 17.5M19 18.5L21.25 20.75L19 23V21.5C16.79 21.5 15 19.71 15 17.5C15 16.68 15.25 15.92 15.67 15.29L16.76 16.38C16.59 16.72 16.5 17.1 16.5 17.5C16.5 18.88 17.62 20 19 20V18.5Z" />
    </symbol>
    <symbol xmlns="http://www.w3.org/2000/svg" viewBox="0 0 24 24" id="delete-forever">
      <path
        d="M6,19A2,2 0 0,0 8,21H16A2,2 0 0,0 18,19V7H6V19M8.46,11.88L9.87,10.47L12,12.59L14.12,10.47L15.53,11.88L13.41,14L15.53,16.12L14.12,17.53L12,15.41L9.88,17.53L8.47,16.12L10.59,14L8.46,11.88M15.5,4L14.5,3H9.5L8.5,4H5V6H19V4H15.5Z" />
    </symbol>
    <symbol xmlns="http://www.w3.org/2000/svg" viewBox="0 0 24 24" id="filter-remove">
      <path
        d="M14.76,20.83L17.6,18L14.76,15.17L16.17,13.76L19,16.57L21.83,13.76L23.24,15.17L20.43,18L23.24,20.83L21.83,22.24L19,19.4L16.17,22.24L14.76,20.83M12,12V19.88C12.04,20.18 11.94,20.5 11.71,20.71C11.32,21.1 10.69,21.1 10.3,20.71L8.29,18.7C8.06,18.47 7.96,18.16 8,17.87V12H7.97L2.21,4.62C1.87,4.19 1.95,3.56 2.38,3.22C2.57,3.08 2.78,3 3,3V3H17V3C17.22,3 17.43,3.08 17.62,3.22C18.05,3.56 18.13,4.19 17.79,4.62L12.03,12H12Z" />
    </symbol>
    <symbol xmlns="http://www.w3.org/2000/svg" viewBox="0 0 24 24" id="arrow-up">
      <path d="M13,20H11V8L5.5,13.5L4.08,12.08L12,4.16L19.92,12.08L18.5,13.5L13,8V20Z" />
    </symbol>
    <symbol xmlns="http://www.w3.org/2000/svg" viewBox="0 0 24 24" id="chevron-down">
      <path d="M7.41,8.58L12,13.17L16.59,8.58L18,10L12,16L6,10L7.41,8.58Z" />
    </symbol>
    <symbol xmlns="http://www.w3.org/2000/svg" viewBox="0 0 24 24" id="cog">
      <path
        d="M12,15.5A3.5,3.5 0 0,1 8.5,12A3.5,3.5 0 0,1 12,8.5A3.5,3.5 0 0,1 15.5,12A3.5,3.5 0 0,1 12,15.5M19.43,12.97C19.47,12.65 19.5,12.33 19.5,12C19.5,11.67 19.47,11.34 19.43,11L21.54,9.37C21.73,9.22 21.78,8.95 21.66,8.73L19.66,5.27C19.54,5.05 19.27,4.96 19.05,5.05L16.56,6.05C16.04,5.66 15.5,5.32 14.87,5.07L14.5,2.42C14.46,2.18 14.25,2 14,2H10C9.75,2 9.54,2.18 9.5,2.42L9.13,5.07C8.5,5.32 7.96,5.66 7.44,6.05L4.95,5.05C4.73,4.96 4.46,5.05 4.34,5.27L2.34,8.73C2.21,8.95 2.27,9.22 2.46,9.37L4.57,11C4.53,11.34 4.5,11.67 4.5,12C4.5,12.33 4.53,12.65 4.57,12.97L2.46,14.63C2.27,14.78 2.21,15.05 2.34,15.27L4.34,18.73C4.46,18.95 4.73,19.03 4.95,18.95L7.44,17.94C7.96,18.34 8.5,18.68 9.13,18.93L9.5,21.58C9.54,21.82 9.75,22 10,22H14C14.25,22 14.46,21.82 14.5,21.58L14.87,18.93C15.5,18.67 16.04,18.34 16.56,17.94L19.05,18.95C19.27,19.03 19.54,18.95 19.66,18.73L21.66,15.27C21.78,15.05 21.73,14.78 21.54,14.63L19.43,12.97Z" />
    </symbol>
    <symbol xmlns="http://www.w3.org/2000/svg" viewBox="0 0 24 24" id="emoticon-cry">
      <path
        d="M5.14,17.57C5.14,16.5 6.32,14.5 7.57,12.81C8.82,14.5 10,16.5 10,17.57A2.43,2.43 0 0,1 7.57,20C6.23,20 5.14,18.91 5.14,17.57M22,12A10,10 0 0,1 12,22C11.08,22 10.18,21.86 9.33,21.63C10.9,20.95 12,19.39 12,17.57C12,17.12 11.89,16.6 11.69,16C11.79,16 11.89,16 12,16C13.25,16 14.32,16.5 14.77,17.23L16.19,15.81C15.29,14.72 13.75,14 12,14C11.59,14 11.19,14.04 10.81,14.12C10.38,13.36 9.85,12.53 9.19,11.63L8.71,11C9.42,10.87 10,10.23 10,9.5C10,8.7 9.3,8 8.5,8C7.7,8 7,8.7 7,9.5C7,9.69 7.04,9.87 7.11,10.04L5.96,11.63C4.4,13.75 3.5,15.5 3.23,16.81C2.45,15.38 2,13.74 2,12A10,10 0 0,1 12,2A10,10 0 0,1 22,12M17,9.5C17,8.7 16.3,8 15.5,8C14.7,8 14,8.7 14,9.5C14,10.3 14.7,11 15.5,11C16.3,11 17,10.3 17,9.5Z" />
    </symbol>
    <symbol xmlns="http://www.w3.org/2000/svg" viewBox="0 0 24 24" id="keyboard-return">
      <path d="M19,7V11H5.83L9.41,7.41L8,6L2,12L8,18L9.41,16.58L5.83,13H21V7H19Z" />
    </symbol>
    <symbol xmlns="http://www.w3.org/2000/svg" viewBox="0 0 24 24" id="information">
      <path
        d="M13,9H11V7H13M13,17H11V11H13M12,2A10,10 0 0,0 2,12A10,10 0 0,0 12,22A10,10 0 0,0 22,12A10,10 0 0,0 12,2Z" />
    </symbol>
    <symbol xmlns="http://www.w3.org/2000/svg" viewBox="0 0 24 24" id="filter">
      <path
        d="M14,12V19.88C14.04,20.18 13.94,20.5 13.71,20.71C13.32,21.1 12.69,21.1 12.3,20.71L10.29,18.7C10.06,18.47 9.96,18.16 10,17.87V12H9.97L4.21,4.62C3.87,4.19 3.95,3.56 4.38,3.22C4.57,3.08 4.78,3 5,3V3H19V3C19.22,3 19.43,3.08 19.62,3.22C20.05,3.56 20.13,4.19 19.79,4.62L14.03,12H14Z" />
    </symbol>
    <symbol xmlns="http://www.w3.org/2000/svg" viewBox="0 0 24 24" id="webhook">
      <path
        d="M10.46,19C9,21.07 6.15,21.59 4.09,20.15C2.04,18.71 1.56,15.84 3,13.75C3.87,12.5 5.21,11.83 6.58,11.77L6.63,13.2C5.72,13.27 4.84,13.74 4.27,14.56C3.27,16 3.58,17.94 4.95,18.91C6.33,19.87 8.26,19.5 9.26,18.07C9.57,17.62 9.75,17.13 9.82,16.63V15.62L15.4,15.58L15.47,15.47C16,14.55 17.15,14.23 18.05,14.75C18.95,15.27 19.26,16.43 18.73,17.35C18.2,18.26 17.04,18.58 16.14,18.06C15.73,17.83 15.44,17.46 15.31,17.04L11.24,17.06C11.13,17.73 10.87,18.38 10.46,19M17.74,11.86C20.27,12.17 22.07,14.44 21.76,16.93C21.45,19.43 19.15,21.2 16.62,20.89C15.13,20.71 13.9,19.86 13.19,18.68L14.43,17.96C14.92,18.73 15.75,19.28 16.75,19.41C18.5,19.62 20.05,18.43 20.26,16.76C20.47,15.09 19.23,13.56 17.5,13.35C16.96,13.29 16.44,13.36 15.97,13.53L15.12,13.97L12.54,9.2H12.32C11.26,9.16 10.44,8.29 10.47,7.25C10.5,6.21 11.4,5.4 12.45,5.44C13.5,5.5 14.33,6.35 14.3,7.39C14.28,7.83 14.11,8.23 13.84,8.54L15.74,12.05C16.36,11.85 17.04,11.78 17.74,11.86M8.25,9.14C7.25,6.79 8.31,4.1 10.62,3.12C12.94,2.14 15.62,3.25 16.62,5.6C17.21,6.97 17.09,8.47 16.42,9.67L15.18,8.95C15.6,8.14 15.67,7.15 15.27,6.22C14.59,4.62 12.78,3.85 11.23,4.5C9.67,5.16 8.97,7 9.65,8.6C9.93,9.26 10.4,9.77 10.97,10.11L11.36,10.32L8.29,15.31C8.32,15.36 8.36,15.42 8.39,15.5C8.88,16.41 8.54,17.56 7.62,18.05C6.71,18.54 5.56,18.18 5.06,17.24C4.57,16.31 4.91,15.16 5.83,14.67C6.22,14.46 6.65,14.41 7.06,14.5L9.37,10.73C8.9,10.3 8.5,9.76 8.25,9.14Z" />
    </symbol>
    <symbol xmlns="http://www.w3.org/2000/svg" viewBox="0 0 24 24" id="identifier">
      <path
        d="M10 7V9H9V15H10V17H6V15H7V9H6V7H10M16 7C17.11 7 18 7.9 18 9V15C18 16.11 17.11 17 16 17H12V7M16 9H14V15H16V9Z" />
    </symbol>
    <symbol xmlns="http://www.w3.org/2000/svg" viewBox="0 0 24 24" id="clock">
      <path
        d="M12,2A10,10 0 0,0 2,12A10,10 0 0,0 12,22A10,10 0 0,0 22,12A10,10 0 0,0 12,2M16.2,16.2L11,13V7H12.5V12.2L17,14.9L16.2,16.2Z" />
    </symbol>
    <symbol xmlns="http://www.w3.org/2000/svg" viewBox="0 0 24 24" id="arrow-right-thick">
      <path d="M4,10V14H13L9.5,17.5L11.92,19.92L19.84,12L11.92,4.08L9.5,6.5L13,10H4Z" />
    </symbol>
    <symbol xmlns="http://www.w3.org/2000/svg" viewBox="0 0 24 24" id="arrow-left-thick">
      <path d="M20,10V14H11L14.5,17.5L12.08,19.92L4.16,12L12.08,4.08L14.5,6.5L11,10H20Z" />
    </symbol>
    <symbol xmlns="http://www.w3.org/2000/svg" viewBox="0 0 24 24" id="transit-connection-variant">
      <path
        d="M18,11H14.82C14.4,9.84 13.3,9 12,9C10.7,9 9.6,9.84 9.18,11H6C5.67,11 4,10.9 4,9V8C4,6.17 5.54,6 6,6H16.18C16.6,7.16 17.7,8 19,8A3,3 0 0,0 22,5A3,3 0 0,0 19,2C17.7,2 16.6,2.84 16.18,4H6C4.39,4 2,5.06 2,8V9C2,11.94 4.39,13 6,13H9.18C9.6,14.16 10.7,15 12,15C13.3,15 14.4,14.16 14.82,13H18C18.33,13 20,13.1 20,15V16C20,17.83 18.46,18 18,18H7.82C7.4,16.84 6.3,16 5,16A3,3 0 0,0 2,19A3,3 0 0,0 5,22C6.3,22 7.4,21.16 7.82,20H18C19.61,20 22,18.93 22,16V15C22,12.07 19.61,11 18,11M19,4A1,1 0 0,1 20,5A1,1 0 0,1 19,6A1,1 0 0,1 18,5A1,1 0 0,1 19,4M5,20A1,1 0 0,1 4,19A1,1 0 0,1 5,18A1,1 0 0,1 6,19A1,1 0 0,1 5,20Z" />
    </symbol>
    <symbol xmlns="http://www.w3.org/2000/svg" viewBox="0 0 24 24" id="chevron-left">
      <path d="M15.41,16.58L10.83,12L15.41,7.41L14,6L8,12L14,18L15.41,16.58Z" />
    </symbol>
    <symbol xmlns="http://www.w3.org/2000/svg" viewBox="0 0 24 24" id="alert">
      <path d="M13 14H11V9H13M13 18H11V16H13M1 21H23L12 2L1 21Z" />
    </symbol>
    <symbol xmlns="http://www.w3.org/2000/svg" viewBox="0 0 24 24" id="import">
      <path
        d="M14,12L10,8V11H2V13H10V16M20,18V6C20,4.89 19.1,4 18,4H6A2,2 0 0,0 4,6V9H6V6H18V18H6V15H4V18A2,2 0 0,0 6,20H18A2,2 0 0,0 20,18Z" />
    </symbol>
    <symbol xmlns="http://www.w3.org/2000/svg" viewBox="0 0 24 24" id="package-down">
      <path
        d="M5.12,5L5.93,4H17.93L18.87,5M12,17.5L6.5,12H10V10H14V12H17.5L12,17.5M20.54,5.23L19.15,3.55C18.88,3.21 18.47,3 18,3H6C5.53,3 5.12,3.21 4.84,3.55L3.46,5.23C3.17,5.57 3,6 3,6.5V19A2,2 0 0,0 5,21H19A2,2 0 0,0 21,19V6.5C21,6 20.83,5.57 20.54,5.23Z" />
    </symbol>
    <symbol xmlns="http://www.w3.org/2000/svg" viewBox="0 0 24 24" id="wifi-check">
      <path
        d="M12 12C9.97 12 8.1 12.67 6.6 13.8L4.8 11.4C6.81 9.89 9.3 9 12 9S17.19 9.89 19.2 11.4L17.92 13.1C17.55 13.17 17.18 13.27 16.84 13.41C15.44 12.5 13.78 12 12 12M21 9L22.8 6.6C19.79 4.34 16.05 3 12 3S4.21 4.34 1.2 6.6L3 9C5.5 7.12 8.62 6 12 6S18.5 7.12 21 9M12 15C10.65 15 9.4 15.45 8.4 16.2L12 21L13.04 19.61C13 19.41 13 19.21 13 19C13 17.66 13.44 16.43 14.19 15.43C13.5 15.16 12.77 15 12 15M17.75 19.43L16.16 17.84L15 19L17.75 22L22.5 17.25L21.34 15.84L17.75 19.43Z" />
    </symbol>
    <symbol xmlns="http://www.w3.org/2000/svg" viewBox="0 0 24 24" id="chevron-right">
      <path d="M8.59,16.58L13.17,12L8.59,7.41L10,6L16,12L10,18L8.59,16.58Z" />
    </symbol>
    <symbol xmlns="http://www.w3.org/2000/svg" viewBox="0 0 24 24" id="plus">
      <path d="M19,13H13V19H11V13H5V11H11V5H13V11H19V13Z" />
    </symbol>
    <symbol xmlns="http://www.w3.org/2000/svg" viewBox="0 0 24 24" id="dots-horizontal">
      <path
        d="M16,12A2,2 0 0,1 18,10A2,2 0 0,1 20,12A2,2 0 0,1 18,14A2,2 0 0,1 16,12M10,12A2,2 0 0,1 12,10A2,2 0 0,1 14,12A2,2 0 0,1 12,14A2,2 0 0,1 10,12M4,12A2,2 0 0,1 6,10A2,2 0 0,1 8,12A2,2 0 0,1 6,14A2,2 0 0,1 4,12Z" />
    </symbol>
    <symbol xmlns="http://www.w3.org/2000/svg" viewBox="0 0 24 24" id="text-box">
      <path
        d="M14,17H7V15H14M17,13H7V11H17M17,9H7V7H17M19,3H5C3.89,3 3,3.89 3,5V19A2,2 0 0,0 5,21H19A2,2 0 0,0 21,19V5C21,3.89 20.1,3 19,3Z" />
    </symbol>
    <symbol xmlns="http://www.w3.org/2000/svg" viewBox="0 0 24 24" id="play">
      <path d="M8,5.14V19.14L19,12.14L8,5.14Z" />
    </symbol>
    <symbol xmlns="http://www.w3.org/2000/svg" viewBox="0 0 24 24" id="close">
      <path
        d="M19,6.41L17.59,5L12,10.59L6.41,5L5,6.41L10.59,12L5,17.59L6.41,19L12,13.41L17.59,19L19,17.59L13.41,12L19,6.41Z" />
    </symbol>
    <symbol xmlns="http://www.w3.org/2000/svg" viewBox="0 0 24 24" id="cancel">
      <path
        d="M12 2C17.5 2 22 6.5 22 12S17.5 22 12 22 2 17.5 2 12 6.5 2 12 2M12 4C10.1 4 8.4 4.6 7.1 5.7L18.3 16.9C19.3 15.5 20 13.8 20 12C20 7.6 16.4 4 12 4M16.9 18.3L5.7 7.1C4.6 8.4 4 10.1 4 12C4 16.4 7.6 20 12 20C13.9 20 15.6 19.4 16.9 18.3Z" />
    </symbol>
  </defs>
</svg>