<?xml version="1.0" encoding="utf-8"?>
<!-- Material Design icons licensed under Pictogrammers Free License -
https://pictogrammers.com/docs/general/license/ -->
<!-- https://github.com/Templarian/MaterialDesign/tree/master -->
<svg width="0" height="0" class="hidden">
  <defs>
    <svg xmlns="http://www.w3.org/2000/svg" viewBox="0 0 24 24" id="alpha-t-box">
      <path d="M9,7V9H11V17H13V9H15V7H9M5,3H19A2,2 0 0,1 21,5V19A2,2 0 0,1 19,21H5A2,2 0 0,1 3,19V5A2,2 0 0,1 5,3Z" />
    </svg>
    <symbol xmlns="http://www.w3.org/2000/svg" viewBox="0 0 24 24" id="alpha-i-box-outline">
      <path d="M14,7V9H13V15H14V17H10V15H11V9H10V7H14M5,3H19A2,2 0 0,1 21,5V19A2,2 0 0,1 19,21H5A2,2 0 0,1 3,19V5A2,2 0 0,1 5,3M5,5V19H19V5H5Z" />
    </symbol>
    <symbol xmlns="http://www.w3.org/2000/svg" viewBox="0 0 24 24" id="alpha-s-box">
      <path d="M11,7A2,2 0 0,0 9,9V11A2,2 0 0,0 11,13H13V15H9V17H13A2,2 0 0,0 15,15V13A2,2 0 0,0 13,11H11V9H15V7H11M5,3H19A2,2 0 0,1 21,5V19A2,2 0 0,1 19,21H5A2,2 0 0,1 3,19V5A2,2 0 0,1 5,3Z" />
    </symbol>
    <symbol xmlns="http://www.w3.org/2000/svg" viewBox="0 0 24 24" id="alpha-b-box">
      <path d="M5,3H19A2,2 0 0,1 21,5V19A2,2 0 0,1 19,21H5A2,2 0 0,1 3,19V5A2,2 0 0,1 5,3M15,10.5V9A2,2 0 0,0 13,7H9V17H13A2,2 0 0,0 15,15V13.5C15,12.7 14.3,12 13.5,12C14.3,12 15,11.3 15,10.5M13,15H11V13H13V15M13,11H11V9H13V11Z" />
    </symbol>
    <symbol xmlns="http://www.w3.org/2000/svg" viewBox="0 0 24 24" id="alpha-d-box">
      <path d="M9,7V17H13A2,2 0 0,0 15,15V9A2,2 0 0,0 13,7H9M11,9H13V15H11V9M5,3H19A2,2 0 0,1 21,5V19A2,2 0 0,1 19,21H5A2,2 0 0,1 3,19V5A2,2 0 0,1 5,3Z" />
    </symbol>
    <symbol xmlns="http://www.w3.org/2000/svg" viewBox="0 0 24 24" id="alpha-i-box">
      <path d="M14,7H10V9H11V15H10V17H14V15H13V9H14V7M5,3H19A2,2 0 0,1 21,5V19A2,2 0 0,1 19,21H5A2,2 0 0,1 3,19V5A2,2 0 0,1 5,3Z" />
    </symbol>
    <symbol xmlns="http://www.w3.org/2000/svg" viewBox="0 0 24 24" id="alpha-s-box-outline">
      <path d="M11,7H15V9H11V11H13A2,2 0 0,1 15,13V15A2,2 0 0,1 13,17H9V15H13V13H11A2,2 0 0,1 9,11V9A2,2 0 0,1 11,7M5,3H19A2,2 0 0,1 21,5V19A2,2 0 0,1 19,21H5A2,2 0 0,1 3,19V5A2,2 0 0,1 5,3M5,5V19H19V5H5Z" />
    </symbol>
    <symbol xmlns="http://www.w3.org/2000/svg" viewBox="0 0 24 24" id="alpha-s-box">
      <path d="M11,7A2,2 0 0,0 9,9V11A2,2 0 0,0 11,13H13V15H9V17H13A2,2 0 0,0 15,15V13A2,2 0 0,0 13,11H11V9H15V7H11M5,3H19A2,2 0 0,1 21,5V19A2,2 0 0,1 19,21H5A2,2 0 0,1 3,19V5A2,2 0 0,1 5,3Z" />
    </symbol>
    <symbol xmlns="http://www.w3.org/2000/svg" viewBox="0 0 24 24" id="identifier">
      <path d="M10 7V9H9V15H10V17H6V15H7V9H6V7H10M16 7C17.11 7 18 7.9 18 9V15C18 16.11 17.11 17 16 17H12V7M16 9H14V15H16V9Z" />
    </symbol>
    <symbol xmlns="http://www.w3.org/2000/svg" viewBox="0 0 24 24" id="content-copy">
      <path d="M19,21H8V7H19M19,5H8A2,2 0 0,0 6,7V21A2,2 0 0,0 8,23H19A2,2 0 0,0 21,21V7A2,2 0 0,0 19,5M16,1H4A2,2 0 0,0 2,3V17H4V3H16V1Z" />
    </symbol>
    <symbol xmlns="http://www.w3.org/2000/svg" viewBox="0 0 24 24" id="download">
      <path d="M5,20H19V18H5M19,9H15V3H9V9H5L12,16L19,9Z" />
    </symbol>
    <symbol xmlns="http://www.w3.org/2000/svg" viewBox="0 0 24 24" id="cogs">
      <path d="M15.9,18.45C17.25,18.45 18.35,17.35 18.35,16C18.35,14.65 17.25,13.55 15.9,13.55C14.54,13.55 13.45,14.65 13.45,16C13.45,17.35 14.54,18.45 15.9,18.45M21.1,16.68L22.58,17.84C22.71,17.95 22.75,18.13 22.66,18.29L21.26,20.71C21.17,20.86 21,20.92 20.83,20.86L19.09,20.16C18.73,20.44 18.33,20.67 17.91,20.85L17.64,22.7C17.62,22.87 17.47,23 17.3,23H14.5C14.32,23 14.18,22.87 14.15,22.7L13.89,20.85C13.46,20.67 13.07,20.44 12.71,20.16L10.96,20.86C10.81,20.92 10.62,20.86 10.54,20.71L9.14,18.29C9.05,18.13 9.09,17.95 9.22,17.84L10.7,16.68L10.65,16L10.7,15.31L9.22,14.16C9.09,14.05 9.05,13.86 9.14,13.71L10.54,11.29C10.62,11.13 10.81,11.07 10.96,11.13L12.71,11.84C13.07,11.56 13.46,11.32 13.89,11.15L14.15,9.29C14.18,9.13 14.32,9 14.5,9H17.3C17.47,9 17.62,9.13 17.64,9.29L17.91,11.15C18.33,11.32 18.73,11.56 19.09,11.84L20.83,11.13C21,11.07 21.17,11.13 21.26,11.29L22.66,13.71C22.75,13.86 22.71,14.05 22.58,14.16L21.1,15.31L21.15,16L21.1,16.68M6.69,8.07C7.56,8.07 8.26,7.37 8.26,6.5C8.26,5.63 7.56,4.92 6.69,4.92A1.58,1.58 0 0,0 5.11,6.5C5.11,7.37 5.82,8.07 6.69,8.07M10.03,6.94L11,7.68C11.07,7.75 11.09,7.87 11.03,7.97L10.13,9.53C10.08,9.63 9.96,9.67 9.86,9.63L8.74,9.18L8,9.62L7.81,10.81C7.79,10.92 7.7,11 7.59,11H5.79C5.67,11 5.58,10.92 5.56,10.81L5.4,9.62L4.64,9.18L3.5,9.63C3.41,9.67 3.3,9.63 3.24,9.53L2.34,7.97C2.28,7.87 2.31,7.75 2.39,7.68L3.34,6.94L3.31,6.5L3.34,6.06L2.39,5.32C2.31,5.25 2.28,5.13 2.34,5.03L3.24,3.47C3.3,3.37 3.41,3.33 3.5,3.37L4.63,3.82L5.4,3.38L5.56,2.19C5.58,2.08 5.67,2 5.79,2H7.59C7.7,2 7.79,2.08 7.81,2.19L8,3.38L8.74,3.82L9.86,3.37C9.96,3.33 10.08,3.37 10.13,3.47L11.03,5.03C11.09,5.13 11.07,5.25 11,5.32L10.03,6.06L10.06,6.5L10.03,6.94Z" />
    </symbol>
    <symbol xmlns="http://www.w3.org/2000/svg" viewBox="0 0 24 24" id="clipboard-text">
      <path d="M17,9H7V7H17M17,13H7V11H17M14,17H7V15H14M12,3A1,1 0 0,1 13,4A1,1 0 0,1 12,5A1,1 0 0,1 11,4A1,1 0 0,1 12,3M19,3H14.82C14.4,1.84 13.3,1 12,1C10.7,1 9.6,1.84 9.18,3H5A2,2 0 0,0 3,5V19A2,2 0 0,0 5,21H19A2,2 0 0,0 21,19V5A2,2 0 0,0 19,3Z" />
    </symbol>
    <symbol xmlns="http://www.w3.org/2000/svg" viewBox="0 0 24 24" id="github">
      <path d="M12,2A10,10 0 0,0 2,12C2,16.42 4.87,20.17 8.84,21.5C9.34,21.58 9.5,21.27 9.5,21C9.5,20.77 9.5,20.14 9.5,19.31C6.73,19.91 6.14,17.97 6.14,17.97C5.68,16.81 5.03,16.5 5.03,16.5C4.12,15.88 5.1,15.9 5.1,15.9C6.1,15.97 6.63,16.93 6.63,16.93C7.5,18.45 8.97,18 9.54,17.76C9.63,17.11 9.89,16.67 10.17,16.42C7.95,16.17 5.62,15.31 5.62,11.5C5.62,10.39 6,9.5 6.65,8.79C6.55,8.54 6.2,7.5 6.75,6.15C6.75,6.15 7.59,5.88 9.5,7.17C10.29,6.95 11.15,6.84 12,6.84C12.85,6.84 13.71,6.95 14.5,7.17C16.41,5.88 17.25,6.15 17.25,6.15C17.8,7.5 17.45,8.54 17.35,8.79C18,9.5 18.38,10.39 18.38,11.5C18.38,15.32 16.04,16.16 13.81,16.41C14.17,16.72 14.5,17.33 14.5,18.26C14.5,19.6 14.5,20.68 14.5,21C14.5,21.27 14.66,21.59 15.17,21.5C19.14,20.16 22,16.42 22,12A10,10 0 0,0 12,2Z" />
    </symbol>
    <symbol xmlns="http://www.w3.org/2000/svg" viewBox="0 0 24 24" id="open-in-new">
      <path d="M14,3V5H17.59L7.76,14.83L9.17,16.24L19,6.41V10H21V3M19,19H5V5H12V3H5C3.89,3 3,3.9 3,5V19A2,2 0 0,0 5,21H19A2,2 0 0,0 21,19V12H19V19Z" />
    </symbol>
    <symbol xmlns="http://www.w3.org/2000/svg" viewBox="0 0 24 24" id="web">
      <path d="M16.36,14C16.44,13.34 16.5,12.68 16.5,12C16.5,11.32 16.44,10.66 16.36,10H19.74C19.9,10.64 20,11.31 20,12C20,12.69 19.9,13.36 19.74,14M14.59,19.56C15.19,18.45 15.65,17.25 15.97,16H18.92C17.96,17.65 16.43,18.93 14.59,19.56M14.34,14H9.66C9.56,13.34 9.5,12.68 9.5,12C9.5,11.32 9.56,10.65 9.66,10H14.34C14.43,10.65 14.5,11.32 14.5,12C14.5,12.68 14.43,13.34 14.34,14M12,19.96C11.17,18.76 10.5,17.43 10.09,16H13.91C13.5,17.43 12.83,18.76 12,19.96M8,8H5.08C6.03,6.34 7.57,5.06 9.4,4.44C8.8,5.55 8.35,6.75 8,8M5.08,16H8C8.35,17.25 8.8,18.45 9.4,19.56C7.57,18.93 6.03,17.65 5.08,16M4.26,14C4.1,13.36 4,12.69 4,12C4,11.31 4.1,10.64 4.26,10H7.64C7.56,10.66 7.5,11.32 7.5,12C7.5,12.68 7.56,13.34 7.64,14M12,4.03C12.83,5.23 13.5,6.57 13.91,8H10.09C10.5,6.57 11.17,5.23 12,4.03M18.92,8H15.97C15.65,6.75 15.19,5.55 14.59,4.44C16.43,5.07 17.96,6.34 18.92,8M12,2C6.47,2 2,6.5 2,12A10,10 0 0,0 12,22A10,10 0 0,0 22,12A10,10 0 0,0 12,2Z" />
    </symbol>
    <symbol xmlns="http://www.w3.org/2000/svg" viewBox="0 0 24 24" id="bell-ring">
      <path d="M21,19V20H3V19L5,17V11C5,7.9 7.03,5.17 10,4.29C10,4.19 10,4.1 10,4A2,2 0 0,1 12,2A2,2 0 0,1 14,4C14,4.1 14,4.19 14,4.29C16.97,5.17 19,7.9 19,11V17L21,19M14,21A2,2 0 0,1 12,23A2,2 0 0,1 10,21M19.75,3.19L18.33,4.61C20.04,6.3 21,8.6 21,11H23C23,8.07 21.84,5.25 19.75,3.19M1,11H3C3,8.6 3.96,6.3 5.67,4.61L4.25,3.19C2.16,5.25 1,8.07 1,11Z" />
    </symbol>
    <symbol xmlns="http://www.w3.org/2000/svg" viewBox="0 0 24 24" id="emoticon-cool">
      <path d="M3.22,7.22C4.91,4.11 8.21,2 12,2C15.79,2 19.09,4.11 20.78,7.22L20,8H4L3.22,7.22M21.4,8.6C21.78,9.67 22,10.81 22,12A10,10 0 0,1 12,22A10,10 0 0,1 2,12C2,10.81 2.22,9.67 2.6,8.6L4,10H5C5,11.38 7.12,12.5 8.5,12.5C9.88,12.5 11.25,11.38 11.25,10H12.75C12.75,11.38 14.12,12.5 15.5,12.5C16.88,12.5 19,11.38 19,10H20L21.4,8.6M16.19,15.42L14.77,14C14.32,14.72 13.25,15.23 12,15.23C10.75,15.23 9.68,14.72 9.23,14L7.81,15.42C8.71,16.5 10.25,17.23 12,17.23C13.75,17.23 15.29,16.5 16.19,15.42Z" />
    </symbol>
    <symbol xmlns="http://www.w3.org/2000/svg" viewBox="0 0 24 24" id="security">
      <path d="M12,12H19C18.47,16.11 15.72,19.78 12,20.92V12H5V6.3L12,3.19M12,1L3,5V11C3,16.55 6.84,21.73 12,23C17.16,21.73 21,16.55 21,11V5L12,1Z" />
    </symbol>
    <symbol xmlns="http://www.w3.org/2000/svg" viewBox="0 0 24 24" id="star-plus">
      <path d="M5.8 21L7.4 14L2 9.2L9.2 8.6L12 2L14.8 8.6L22 9.2L18.8 12H18C14.9 12 12.4 14.3 12 17.3L5.8 21M17 14V17H14V19H17V22H19V19H22V17H19V14H17Z" />
    </symbol>
    <symbol xmlns="http://www.w3.org/2000/svg" viewBox="0 0 24 24" id="star-outline">
      <path d="M12,15.39L8.24,17.66L9.23,13.38L5.91,10.5L10.29,10.13L12,6.09L13.71,10.13L18.09,10.5L14.77,13.38L15.76,17.66M22,9.24L14.81,8.63L12,2L9.19,8.63L2,9.24L7.45,13.97L5.82,21L12,17.27L18.18,21L16.54,13.97L22,9.24Z" />
    </symbol>
    <symbol xmlns="http://www.w3.org/2000/svg" viewBox="0 0 24 24" id="script-outline">
      <path d="M15,20A1,1 0 0,0 16,19V4H8A1,1 0 0,0 7,5V16H5V5A3,3 0 0,1 8,2H19A3,3 0 0,1 22,5V6H20V5A1,1 0 0,0 19,4A1,1 0 0,0 18,5V9L18,19A3,3 0 0,1 15,22H5A3,3 0 0,1 2,19V18H13A2,2 0 0,0 15,20Z" />
    </symbol>
    <symbol xmlns="http://www.w3.org/2000/svg" viewBox="0 0 24 24" id="rename">
      <path d="M15 16L11 20H21V16H15M12.06 7.19L3 16.25V20H6.75L15.81 10.94L12.06 7.19M18.71 8.04C19.1 7.65 19.1 7 18.71 6.63L16.37 4.29C16.17 4.09 15.92 4 15.66 4C15.41 4 15.15 4.1 14.96 4.29L13.13 6.12L16.88 9.87L18.71 8.04Z" />
    </symbol>
    <symbol xmlns="http://www.w3.org/2000/svg" viewBox="0 0 24 24" id="magnify">
      <path d="M9.5,3A6.5,6.5 0 0,1 16,9.5C16,11.11 15.41,12.59 14.44,13.73L14.71,14H15.5L20.5,19L19,20.5L14,15.5V14.71L13.73,14.44C12.59,15.41 11.11,16 9.5,16A6.5,6.5 0 0,1 3,9.5A6.5,6.5 0 0,1 9.5,3M9.5,5C7,5 5,7 5,9.5C5,12 7,14 9.5,14C12,14 14,12 14,9.5C14,7 12,5 9.5,5Z" />
    </symbol>
    <symbol xmlns="http://www.w3.org/2000/svg" viewBox="0 0 24 24" id="alert-circle-outline">
      <path d="M11,15H13V17H11V15M11,7H13V13H11V7M12,2C6.47,2 2,6.5 2,12A10,10 0 0,0 12,22A10,10 0 0,0 22,12A10,10 0 0,0 12,2M12,20A8,8 0 0,1 4,12A8,8 0 0,1 12,4A8,8 0 0,1 20,12A8,8 0 0,1 12,20Z" />
    </symbol>
    <symbol xmlns="http://www.w3.org/2000/svg" viewBox="0 0 24 24" id="code-json">
      <path d="M5,3H7V5H5V10A2,2 0 0,1 3,12A2,2 0 0,1 5,14V19H7V21H5C3.93,20.73 3,20.1 3,19V15A2,2 0 0,0 1,13H0V11H1A2,2 0 0,0 3,9V5A2,2 0 0,1 5,3M19,3A2,2 0 0,1 21,5V9A2,2 0 0,0 23,11H24V13H23A2,2 0 0,0 21,15V19A2,2 0 0,1 19,21H17V19H19V14A2,2 0 0,1 21,12A2,2 0 0,1 19,10V5H17V3H19M12,15A1,1 0 0,1 13,16A1,1 0 0,1 12,17A1,1 0 0,1 11,16A1,1 0 0,1 12,15M8,15A1,1 0 0,1 9,16A1,1 0 0,1 8,17A1,1 0 0,1 7,16A1,1 0 0,1 8,15M16,15A1,1 0 0,1 17,16A1,1 0 0,1 16,17A1,1 0 0,1 15,16A1,1 0 0,1 16,15Z" />
    </symbol>
    <symbol xmlns="http://www.w3.org/2000/svg" viewBox="0 0 24 24" id="cog-play">
      <path d="M13.53 22H10C9.75 22 9.54 21.82 9.5 21.58L9.13 18.93C8.5 18.68 7.96 18.34 7.44 17.94L4.95 18.95C4.73 19.03 4.46 18.95 4.34 18.73L2.34 15.27C2.21 15.05 2.27 14.78 2.46 14.63L4.57 12.97C4.53 12.65 4.5 12.33 4.5 12S4.53 11.34 4.57 11L2.46 9.37C2.27 9.22 2.21 8.95 2.34 8.73L4.34 5.27C4.46 5.05 4.73 4.96 4.95 5.05L7.44 6.05C7.96 5.66 8.5 5.32 9.13 5.07L9.5 2.42C9.54 2.18 9.75 2 10 2H14C14.25 2 14.46 2.18 14.5 2.42L14.87 5.07C15.5 5.32 16.04 5.66 16.56 6.05L19.05 5.05C19.27 4.96 19.54 5.05 19.66 5.27L21.66 8.73C21.78 8.95 21.73 9.22 21.54 9.37L19.43 11C19.47 11.34 19.5 11.67 19.5 12V12.19C19 12.07 18.5 12 18 12C17.08 12 16.22 12.21 15.44 12.58C15.47 12.39 15.5 12.2 15.5 12C15.5 10.07 13.93 8.5 12 8.5S8.5 10.07 8.5 12 10.07 15.5 12 15.5C12.2 15.5 12.39 15.47 12.58 15.44C12.21 16.22 12 17.08 12 18C12 19.54 12.58 20.94 13.53 22M16 15V21L21 18L16 15Z" />
    </symbol>
    <symbol xmlns="http://www.w3.org/2000/svg" viewBox="0 0 24 24" id="help">
      <path d="M10,19H13V22H10V19M12,2C17.35,2.22 19.68,7.62 16.5,11.67C15.67,12.67 14.33,13.33 13.67,14.17C13,15 13,16 13,17H10C10,15.33 10,13.92 10.67,12.92C11.33,11.92 12.67,11.33 13.5,10.67C15.92,8.43 15.32,5.26 12,5A3,3 0 0,0 9,8H6A6,6 0 0,1 12,2Z" />
    </symbol>
    <symbol xmlns="http://www.w3.org/2000/svg" viewBox="0 0 24 24" id="history">
      <path d="M13.5,8H12V13L16.28,15.54L17,14.33L13.5,12.25V8M13,3A9,9 0 0,0 4,12H1L4.96,16.03L9,12H6A7,7 0 0,1 13,5A7,7 0 0,1 20,12A7,7 0 0,1 13,19C11.07,19 9.32,18.21 8.06,16.94L6.64,18.36C8.27,20 10.5,21 13,21A9,9 0 0,0 22,12A9,9 0 0,0 13,3" />
    </symbol>
    <symbol xmlns="http://www.w3.org/2000/svg" viewBox="0 0 24 24" id="star">
      <path d="M12,17.27L18.18,21L16.54,13.97L22,9.24L14.81,8.62L12,2L9.19,8.62L2,9.24L7.45,13.97L5.82,21L12,17.27Z" />
    </symbol>
    <symbol xmlns="http://www.w3.org/2000/svg" viewBox="0 0 24 24" id="delete">
      <path d="M19,4H15.5L14.5,3H9.5L8.5,4H5V6H19M6,19A2,2 0 0,0 8,21H16A2,2 0 0,0 18,19V7H6V19Z" />
    </symbol>
    <symbol xmlns="http://www.w3.org/2000/svg" viewBox="0 0 24 24" id="message-arrow-right">
      <path d="M20 2H4C2.9 2 2 2.9 2 4V22L6 18H20C21.1 18 22 17.1 22 16V4C22 2.9 21.1 2 20 2M12 14L10.8 12.8L12.6 11H8V9H12.5L10.7 7.2L12 6L16 10L12 14Z" />
    </symbol>
    <symbol xmlns="http://www.w3.org/2000/svg" viewBox="0 0 24 24" id="check">
      <path d="M21,7L9,19L3.5,13.5L4.91,12.09L9,16.17L19.59,5.59L21,7Z" />
    </symbol>
    <symbol xmlns="http://www.w3.org/2000/svg" viewBox="0 0 24 24" id="check-all">
      <path d="M0.41,13.41L6,19L7.41,17.58L1.83,12M22.24,5.58L11.66,16.17L7.5,12L6.07,13.41L11.66,19L23.66,7M18,7L16.59,5.58L10.24,11.93L11.66,13.34L18,7Z" />
    </symbol>
    <symbol xmlns="http://www.w3.org/2000/svg" viewBox="0 0 24 24" id="web-sync">
      <path d="M16.5 11.74C16.5 11.15 16.43 10.58 16.36 10H19.74C19.82 10.33 19.89 10.67 19.93 11C20.65 11.07 21.34 11.23 22 11.5C21.71 6.21 17.35 2 12 2C6.47 2 2 6.5 2 12C2 17.5 6.5 22 12 22C12.87 22 13.71 21.88 14.5 21.67C13.71 20.71 13.18 19.5 13.04 18.2C12.73 18.81 12.39 19.4 12 19.96C11.17 18.76 10.5 17.43 10.09 16H13.18C13.35 15.28 13.64 14.61 14.03 14H9.66C9.56 13.34 9.5 12.68 9.5 12S9.56 10.65 9.66 10H14.34C14.43 10.65 14.5 11.32 14.5 12C14.5 12.5 14.46 13 14.4 13.5C14.97 12.76 15.68 12.17 16.5 11.74M4.26 14C4.1 13.36 4 12.69 4 12S4.1 10.64 4.26 10H7.64C7.56 10.66 7.5 11.32 7.5 12S7.56 13.34 7.64 14H4.26M5.08 16H8C8.35 17.25 8.8 18.45 9.4 19.56C7.57 18.93 6.03 17.65 5.08 16M8 8H5.08C6.03 6.34 7.57 5.06 9.4 4.44C8.8 5.55 8.35 6.75 8 8M10.09 8C10.5 6.57 11.17 5.23 12 4.03C12.83 5.23 13.5 6.57 13.91 8H10.09M18.92 8H15.97C15.65 6.75 15.19 5.55 14.59 4.44C16.43 5.07 17.96 6.34 18.92 8M23 17.5C23 18.32 22.75 19.08 22.33 19.71L21.24 18.62C21.41 18.28 21.5 17.9 21.5 17.5C21.5 16.12 20.38 15 19 15V16.5L16.75 14.25L19 12V13.5C21.21 13.5 23 15.29 23 17.5M19 18.5L21.25 20.75L19 23V21.5C16.79 21.5 15 19.71 15 17.5C15 16.68 15.25 15.92 15.67 15.29L16.76 16.38C16.59 16.72 16.5 17.1 16.5 17.5C16.5 18.88 17.62 20 19 20V18.5Z" />
    </symbol>
    <symbol xmlns="http://www.w3.org/2000/svg" viewBox="0 0 24 24" id="delete-forever">
      <path d="M6,19A2,2 0 0,0 8,21H16A2,2 0 0,0 18,19V7H6V19M8.46,11.88L9.87,10.47L12,12.59L14.12,10.47L15.53,11.88L13.41,14L15.53,16.12L14.12,17.53L12,15.41L9.88,17.53L8.47,16.12L10.59,14L8.46,11.88M15.5,4L14.5,3H9.5L8.5,4H5V6H19V4H15.5Z" />
    </symbol>
    <symbol xmlns="http://www.w3.org/2000/svg" viewBox="0 0 24 24" id="filter-remove">
      <path d="M14.76,20.83L17.6,18L14.76,15.17L16.17,13.76L19,16.57L21.83,13.76L23.24,15.17L20.43,18L23.24,20.83L21.83,22.24L19,19.4L16.17,22.24L14.76,20.83M12,12V19.88C12.04,20.18 11.94,20.5 11.71,20.71C11.32,21.1 10.69,21.1 10.3,20.71L8.29,18.7C8.06,18.47 7.96,18.16 8,17.87V12H7.97L2.21,4.62C1.87,4.19 1.95,3.56 2.38,3.22C2.57,3.08 2.78,3 3,3V3H17V3C17.22,3 17.43,3.08 17.62,3.22C18.05,3.56 18.13,4.19 17.79,4.62L12.03,12H12Z" />
    </symbol>
    <symbol xmlns="http://www.w3.org/2000/svg" viewBox="0 0 24 24" id="arrow-down-thick">
      <path d="M10,4H14V13L17.5,9.5L19.92,11.92L12,19.84L4.08,11.92L6.5,9.5L10,13V4Z" />
    </symbol>
    <symbol xmlns="http://www.w3.org/2000/svg" viewBox="0 0 24 24" id="arrow-up-thick">
      <path d="M14,20H10V11L6.5,14.5L4.08,12.08L12,4.16L19.92,12.08L17.5,14.5L14,11V20Z" />
    </symbol>
    <symbol xmlns="http://www.w3.org/2000/svg" viewBox="0 0 24 24" id="chevron-down">
      <path d="M7.41,8.58L12,13.17L16.59,8.58L18,10L12,16L6,10L7.41,8.58Z" />
    </symbol>
    <symbol xmlns="http://www.w3.org/2000/svg" viewBox="0 0 24 24" id="cog">
      <path d="M12,15.5A3.5,3.5 0 0,1 8.5,12A3.5,3.5 0 0,1 12,8.5A3.5,3.5 0 0,1 15.5,12A3.5,3.5 0 0,1 12,15.5M19.43,12.97C19.47,12.65 19.5,12.33 19.5,12C19.5,11.67 19.47,11.34 19.43,11L21.54,9.37C21.73,9.22 21.78,8.95 21.66,8.73L19.66,5.27C19.54,5.05 19.27,4.96 19.05,5.05L16.56,6.05C16.04,5.66 15.5,5.32 14.87,5.07L14.5,2.42C14.46,2.18 14.25,2 14,2H10C9.75,2 9.54,2.18 9.5,2.42L9.13,5.07C8.5,5.32 7.96,5.66 7.44,6.05L4.95,5.05C4.73,4.96 4.46,5.05 4.34,5.27L2.34,8.73C2.21,8.95 2.27,9.22 2.46,9.37L4.57,11C4.53,11.34 4.5,11.67 4.5,12C4.5,12.33 4.53,12.65 4.57,12.97L2.46,14.63C2.27,14.78 2.21,15.05 2.34,15.27L4.34,18.73C4.46,18.95 4.73,19.03 4.95,18.95L7.44,17.94C7.96,18.34 8.5,18.68 9.13,18.93L9.5,21.58C9.54,21.82 9.75,22 10,22H14C14.25,22 14.46,21.82 14.5,21.58L14.87,18.93C15.5,18.67 16.04,18.34 16.56,17.94L19.05,18.95C19.27,19.03 19.54,18.95 19.66,18.73L21.66,15.27C21.78,15.05 21.73,14.78 21.54,14.63L19.43,12.97Z" />
    </symbol>
    <symbol xmlns="http://www.w3.org/2000/svg" viewBox="0 0 24 24" id="emoticon-cry">
      <path d="M5.14,17.57C5.14,16.5 6.32,14.5 7.57,12.81C8.82,14.5 10,16.5 10,17.57A2.43,2.43 0 0,1 7.57,20C6.23,20 5.14,18.91 5.14,17.57M22,12A10,10 0 0,1 12,22C11.08,22 10.18,21.86 9.33,21.63C10.9,20.95 12,19.39 12,17.57C12,17.12 11.89,16.6 11.69,16C11.79,16 11.89,16 12,16C13.25,16 14.32,16.5 14.77,17.23L16.19,15.81C15.29,14.72 13.75,14 12,14C11.59,14 11.19,14.04 10.81,14.12C10.38,13.36 9.85,12.53 9.19,11.63L8.71,11C9.42,10.87 10,10.23 10,9.5C10,8.7 9.3,8 8.5,8C7.7,8 7,8.7 7,9.5C7,9.69 7.04,9.87 7.11,10.04L5.96,11.63C4.4,13.75 3.5,15.5 3.23,16.81C2.45,15.38 2,13.74 2,12A10,10 0 0,1 12,2A10,10 0 0,1 22,12M17,9.5C17,8.7 16.3,8 15.5,8C14.7,8 14,8.7 14,9.5C14,10.3 14.7,11 15.5,11C16.3,11 17,10.3 17,9.5Z" />
    </symbol>
    <symbol xmlns="http://www.w3.org/2000/svg" viewBox="0 0 24 24" id="keyboard-return">
      <path d="M19,7V11H5.83L9.41,7.41L8,6L2,12L8,18L9.41,16.58L5.83,13H21V7H19Z" />
    </symbol>
    <symbol xmlns="http://www.w3.org/2000/svg" viewBox="0 0 24 24" id="information">
      <path d="M13,9H11V7H13M13,17H11V11H13M12,2A10,10 0 0,0 2,12A10,10 0 0,0 12,22A10,10 0 0,0 22,12A10,10 0 0,0 12,2Z" />
    </symbol>
    <symbol xmlns="http://www.w3.org/2000/svg" viewBox="0 0 24 24" id="filter">
      <path d="M14,12V19.88C14.04,20.18 13.94,20.5 13.71,20.71C13.32,21.1 12.69,21.1 12.3,20.71L10.29,18.7C10.06,18.47 9.96,18.16 10,17.87V12H9.97L4.21,4.62C3.87,4.19 3.95,3.56 4.38,3.22C4.57,3.08 4.78,3 5,3V3H19V3C19.22,3 19.43,3.08 19.62,3.22C20.05,3.56 20.13,4.19 19.79,4.62L14.03,12H14Z" />
    </symbol>
    <symbol xmlns="http://www.w3.org/2000/svg" viewBox="0 0 24 24" id="webhook">
      <path d="M10.46,19C9,21.07 6.15,21.59 4.09,20.15C2.04,18.71 1.56,15.84 3,13.75C3.87,12.5 5.21,11.83 6.58,11.77L6.63,13.2C5.72,13.27 4.84,13.74 4.27,14.56C3.27,16 3.58,17.94 4.95,18.91C6.33,19.87 8.26,19.5 9.26,18.07C9.57,17.62 9.75,17.13 9.82,16.63V15.62L15.4,15.58L15.47,15.47C16,14.55 17.15,14.23 18.05,14.75C18.95,15.27 19.26,16.43 18.73,17.35C18.2,18.26 17.04,18.58 16.14,18.06C15.73,17.83 15.44,17.46 15.31,17.04L11.24,17.06C11.13,17.73 10.87,18.38 10.46,19M17.74,11.86C20.27,12.17 22.07,14.44 21.76,16.93C21.45,19.43 19.15,21.2 16.62,20.89C15.13,20.71 13.9,19.86 13.19,18.68L14.43,17.96C14.92,18.73 15.75,19.28 16.75,19.41C18.5,19.62 20.05,18.43 20.26,16.76C20.47,15.09 19.23,13.56 17.5,13.35C16.96,13.29 16.44,13.36 15.97,13.53L15.12,13.97L12.54,9.2H12.32C11.26,9.16 10.44,8.29 10.47,7.25C10.5,6.21 11.4,5.4 12.45,5.44C13.5,5.5 14.33,6.35 14.3,7.39C14.28,7.83 14.11,8.23 13.84,8.54L15.74,12.05C16.36,11.85 17.04,11.78 17.74,11.86M8.25,9.14C7.25,6.79 8.31,4.1 10.62,3.12C12.94,2.14 15.62,3.25 16.62,5.6C17.21,6.97 17.09,8.47 16.42,9.67L15.18,8.95C15.6,8.14 15.67,7.15 15.27,6.22C14.59,4.62 12.78,3.85 11.23,4.5C9.67,5.16 8.97,7 9.65,8.6C9.93,9.26 10.4,9.77 10.97,10.11L11.36,10.32L8.29,15.31C8.32,15.36 8.36,15.42 8.39,15.5C8.88,16.41 8.54,17.56 7.62,18.05C6.71,18.54 5.56,18.18 5.06,17.24C4.57,16.31 4.91,15.16 5.83,14.67C6.22,14.46 6.65,14.41 7.06,14.5L9.37,10.73C8.9,10.3 8.5,9.76 8.25,9.14Z" />
    </symbol>
    <symbol xmlns="http://www.w3.org/2000/svg" viewBox="0 0 24 24" id="identifier">
      <path d="M10 7V9H9V15H10V17H6V15H7V9H6V7H10M16 7C17.11 7 18 7.9 18 9V15C18 16.11 17.11 17 16 17H12V7M16 9H14V15H16V9Z" />
    </symbol>
    <symbol xmlns="http://www.w3.org/2000/svg" viewBox="0 0 24 24" id="clock">
      <path d="M12,2A10,10 0 0,0 2,12A10,10 0 0,0 12,22A10,10 0 0,0 22,12A10,10 0 0,0 12,2M16.2,16.2L11,13V7H12.5V12.2L17,14.9L16.2,16.2Z" />
    </symbol>
    <symbol xmlns="http://www.w3.org/2000/svg" viewBox="0 0 24 24" id="arrow-right-thick">
      <path d="M4,10V14H13L9.5,17.5L11.92,19.92L19.84,12L11.92,4.08L9.5,6.5L13,10H4Z" />
    </symbol>
    <symbol xmlns="http://www.w3.org/2000/svg" viewBox="0 0 24 24" id="arrow-left-thick">
      <path d="M20,10V14H11L14.5,17.5L12.08,19.92L4.16,12L12.08,4.08L14.5,6.5L11,10H20Z" />
    </symbol>
    <symbol xmlns="http://www.w3.org/2000/svg" viewBox="0 0 24 24" id="transit-connection-variant">
      <path d="M18,11H14.82C14.4,9.84 13.3,9 12,9C10.7,9 9.6,9.84 9.18,11H6C5.67,11 4,10.9 4,9V8C4,6.17 5.54,6 6,6H16.18C16.6,7.16 17.7,8 19,8A3,3 0 0,0 22,5A3,3 0 0,0 19,2C17.7,2 16.6,2.84 16.18,4H6C4.39,4 2,5.06 2,8V9C2,11.94 4.39,13 6,13H9.18C9.6,14.16 10.7,15 12,15C13.3,15 14.4,14.16 14.82,13H18C18.33,13 20,13.1 20,15V16C20,17.83 18.46,18 18,18H7.82C7.4,16.84 6.3,16 5,16A3,3 0 0,0 2,19A3,3 0 0,0 5,22C6.3,22 7.4,21.16 7.82,20H18C19.61,20 22,18.93 22,16V15C22,12.07 19.61,11 18,11M19,4A1,1 0 0,1 20,5A1,1 0 0,1 19,6A1,1 0 0,1 18,5A1,1 0 0,1 19,4M5,20A1,1 0 0,1 4,19A1,1 0 0,1 5,18A1,1 0 0,1 6,19A1,1 0 0,1 5,20Z" />
    </symbol>
    <symbol xmlns="http://www.w3.org/2000/svg" viewBox="0 0 24 24" id="chevron-left">
      <path d="M15.41,16.58L10.83,12L15.41,7.41L14,6L8,12L14,18L15.41,16.58Z" />
    </symbol>
    <symbol xmlns="http://www.w3.org/2000/svg" viewBox="0 0 24 24" id="alert">
      <path d="M13 14H11V9H13M13 18H11V16H13M1 21H23L12 2L1 21Z" />
    </symbol>
    <symbol xmlns="http://www.w3.org/2000/svg" viewBox="0 0 24 24" id="import">
      <path d="M14,12L10,8V11H2V13H10V16M20,18V6C20,4.89 19.1,4 18,4H6A2,2 0 0,0 4,6V9H6V6H18V18H6V15H4V18A2,2 0 0,0 6,20H18A2,2 0 0,0 20,18Z" />
    </symbol>
    <symbol xmlns="http://www.w3.org/2000/svg" viewBox="0 0 24 24" id="package-down">
      <path d="M5.12,5L5.93,4H17.93L18.87,5M12,17.5L6.5,12H10V10H14V12H17.5L12,17.5M20.54,5.23L19.15,3.55C18.88,3.21 18.47,3 18,3H6C5.53,3 5.12,3.21 4.84,3.55L3.46,5.23C3.17,5.57 3,6 3,6.5V19A2,2 0 0,0 5,21H19A2,2 0 0,0 21,19V6.5C21,6 20.83,5.57 20.54,5.23Z" />
    </symbol>
    <symbol xmlns="http://www.w3.org/2000/svg" viewBox="0 0 24 24" id="wifi-check">
      <path d="M12 12C9.97 12 8.1 12.67 6.6 13.8L4.8 11.4C6.81 9.89 9.3 9 12 9S17.19 9.89 19.2 11.4L17.92 13.1C17.55 13.17 17.18 13.27 16.84 13.41C15.44 12.5 13.78 12 12 12M21 9L22.8 6.6C19.79 4.34 16.05 3 12 3S4.21 4.34 1.2 6.6L3 9C5.5 7.12 8.62 6 12 6S18.5 7.12 21 9M12 15C10.65 15 9.4 15.45 8.4 16.2L12 21L13.04 19.61C13 19.41 13 19.21 13 19C13 17.66 13.44 16.43 14.19 15.43C13.5 15.16 12.77 15 12 15M17.75 19.43L16.16 17.84L15 19L17.75 22L22.5 17.25L21.34 15.84L17.75 19.43Z" />
    </symbol>
    <symbol xmlns="http://www.w3.org/2000/svg" viewBox="0 0 24 24" id="chevron-right">
      <path d="M8.59,16.58L13.17,12L8.59,7.41L10,6L16,12L10,18L8.59,16.58Z" />
    </symbol>
    <symbol xmlns="http://www.w3.org/2000/svg" viewBox="0 0 24 24" id="plus">
      <path d="M19,13H13V19H11V13H5V11H11V5H13V11H19V13Z" />
    </symbol>
    <symbol xmlns="http://www.w3.org/2000/svg" viewBox="0 0 24 24" id="dots-horizontal">
      <path d="M16,12A2,2 0 0,1 18,10A2,2 0 0,1 20,12A2,2 0 0,1 18,14A2,2 0 0,1 16,12M10,12A2,2 0 0,1 12,10A2,2 0 0,1 14,12A2,2 0 0,1 12,14A2,2 0 0,1 10,12M4,12A2,2 0 0,1 6,10A2,2 0 0,1 8,12A2,2 0 0,1 6,14A2,2 0 0,1 4,12Z" />
    </symbol>
    <symbol xmlns="http://www.w3.org/2000/svg" viewBox="0 0 24 24" id="text-box">
      <path d="M14,17H7V15H14M17,13H7V11H17M17,9H7V7H17M19,3H5C3.89,3 3,3.89 3,5V19A2,2 0 0,0 5,21H19A2,2 0 0,0 21,19V5C21,3.89 20.1,3 19,3Z" />
    </symbol>
    <symbol xmlns="http://www.w3.org/2000/svg" viewBox="0 0 24 24" id="play">
      <path d="M8,5.14V19.14L19,12.14L8,5.14Z" />
    </symbol>
    <symbol xmlns="http://www.w3.org/2000/svg" viewBox="0 0 24 24" id="close">
      <path d="M19,6.41L17.59,5L12,10.59L6.41,5L5,6.41L10.59,12L5,17.59L6.41,19L12,13.41L17.59,19L19,17.59L13.41,12L19,6.41Z" />
    </symbol>
    <symbol xmlns="http://www.w3.org/2000/svg" viewBox="0 0 24 24" id="cancel">
      <path d="M12 2C17.5 2 22 6.5 22 12S17.5 22 12 22 2 17.5 2 12 6.5 2 12 2M12 4C10.1 4 8.4 4.6 7.1 5.7L18.3 16.9C19.3 15.5 20 13.8 20 12C20 7.6 16.4 4 12 4M16.9 18.3L5.7 7.1C4.6 8.4 4 10.1 4 12C4 16.4 7.6 20 12 20C13.9 20 15.6 19.4 16.9 18.3Z" />
    </symbol>
  </defs>
</svg>